<mxfile host="app.diagrams.net" modified="2023-06-27T16:55:21.185Z" agent="Mozilla/5.0 (Macintosh; Intel Mac OS X 10_15_7) AppleWebKit/537.36 (KHTML, like Gecko) Chrome/113.0.0.0 Safari/537.36" etag="Goyzme1Qvb3NTE81v7mK" version="21.3.0" type="device">
  <diagram name="Page-1" id="Wg2KNdQ2HCNbrD33yFlu">
    <mxGraphModel dx="2255" dy="939" grid="1" gridSize="10" guides="1" tooltips="1" connect="1" arrows="1" fold="1" page="1" pageScale="1" pageWidth="850" pageHeight="1100" math="0" shadow="0">
      <root>
        <mxCell id="0" />
        <mxCell id="1" parent="0" />
        <mxCell id="h-HeieNbghXJK1KKG8Kg-49" style="edgeStyle=orthogonalEdgeStyle;rounded=0;orthogonalLoop=1;jettySize=auto;html=1;strokeWidth=2;" edge="1" parent="1" source="h-HeieNbghXJK1KKG8Kg-3">
          <mxGeometry relative="1" as="geometry">
            <mxPoint x="290" y="354.9999999999998" as="targetPoint" />
          </mxGeometry>
        </mxCell>
        <mxCell id="h-HeieNbghXJK1KKG8Kg-3" value="" style="rounded=1;whiteSpace=wrap;html=1;fillColor=#dae8fc;strokeColor=#6c8ebf;" vertex="1" parent="1">
          <mxGeometry x="100" y="290" width="120" height="130" as="geometry" />
        </mxCell>
        <mxCell id="h-HeieNbghXJK1KKG8Kg-4" value="" style="image;sketch=0;aspect=fixed;html=1;points=[];align=center;fontSize=12;image=img/lib/mscae/BlobBlock.svg;" vertex="1" parent="1">
          <mxGeometry x="130" y="370" width="50" height="42" as="geometry" />
        </mxCell>
        <mxCell id="h-HeieNbghXJK1KKG8Kg-5" value="" style="shape=image;html=1;verticalAlign=top;verticalLabelPosition=bottom;labelBackgroundColor=#ffffff;imageAspect=0;aspect=fixed;image=https://cdn3.iconfinder.com/data/icons/dompicon-glyph-file-format-2/256/file-csv-format-type-128.png" vertex="1" parent="1">
          <mxGeometry x="125" y="300" width="60" height="60" as="geometry" />
        </mxCell>
        <mxCell id="h-HeieNbghXJK1KKG8Kg-6" value="&lt;b&gt;Blob Storage&lt;/b&gt;" style="text;html=1;align=center;verticalAlign=middle;resizable=0;points=[];autosize=1;strokeColor=none;fillColor=none;" vertex="1" parent="1">
          <mxGeometry x="105" y="420" width="100" height="30" as="geometry" />
        </mxCell>
        <mxCell id="h-HeieNbghXJK1KKG8Kg-9" style="edgeStyle=orthogonalEdgeStyle;rounded=0;orthogonalLoop=1;jettySize=auto;html=1;strokeWidth=2;" edge="1" parent="1">
          <mxGeometry relative="1" as="geometry">
            <mxPoint x="80" y="355" as="targetPoint" />
            <mxPoint x="-10" y="355.0000000000002" as="sourcePoint" />
          </mxGeometry>
        </mxCell>
        <mxCell id="h-HeieNbghXJK1KKG8Kg-45" style="edgeStyle=orthogonalEdgeStyle;rounded=0;orthogonalLoop=1;jettySize=auto;html=1;strokeWidth=2;" edge="1" parent="1" source="h-HeieNbghXJK1KKG8Kg-10">
          <mxGeometry relative="1" as="geometry">
            <mxPoint x="900" y="269.9999999999998" as="targetPoint" />
          </mxGeometry>
        </mxCell>
        <mxCell id="h-HeieNbghXJK1KKG8Kg-46" style="edgeStyle=orthogonalEdgeStyle;rounded=0;orthogonalLoop=1;jettySize=auto;html=1;strokeWidth=2;" edge="1" parent="1" source="h-HeieNbghXJK1KKG8Kg-10">
          <mxGeometry relative="1" as="geometry">
            <mxPoint x="310" y="269.9999999999998" as="targetPoint" />
          </mxGeometry>
        </mxCell>
        <mxCell id="h-HeieNbghXJK1KKG8Kg-10" value="" style="image;aspect=fixed;html=1;points=[];align=center;fontSize=12;image=img/lib/azure2/databases/Data_Factory.svg;" vertex="1" parent="1">
          <mxGeometry x="550" y="100" width="68" height="68" as="geometry" />
        </mxCell>
        <mxCell id="h-HeieNbghXJK1KKG8Kg-50" style="edgeStyle=orthogonalEdgeStyle;rounded=0;orthogonalLoop=1;jettySize=auto;html=1;strokeWidth=2;" edge="1" parent="1" source="h-HeieNbghXJK1KKG8Kg-11">
          <mxGeometry relative="1" as="geometry">
            <mxPoint x="990" y="359.9999999999998" as="targetPoint" />
          </mxGeometry>
        </mxCell>
        <mxCell id="h-HeieNbghXJK1KKG8Kg-11" value="" style="rounded=1;whiteSpace=wrap;html=1;fillColor=#dae8fc;strokeColor=#6c8ebf;" vertex="1" parent="1">
          <mxGeometry x="300" y="280" width="630" height="160" as="geometry" />
        </mxCell>
        <mxCell id="h-HeieNbghXJK1KKG8Kg-17" value="" style="endArrow=classic;html=1;rounded=0;strokeWidth=2;" edge="1" parent="1">
          <mxGeometry width="50" height="50" relative="1" as="geometry">
            <mxPoint x="450" y="329.5" as="sourcePoint" />
            <mxPoint x="520" y="329.5" as="targetPoint" />
          </mxGeometry>
        </mxCell>
        <mxCell id="h-HeieNbghXJK1KKG8Kg-21" value="&lt;font color=&quot;#000000&quot; style=&quot;font-size: 12px;&quot;&gt;check if file&lt;br&gt;is&lt;br&gt;available&lt;/font&gt;" style="rhombus;whiteSpace=wrap;html=1;fillColor=#1ba1e2;fontColor=#ffffff;strokeColor=#006EAF;" vertex="1" parent="1">
          <mxGeometry x="310" y="315" width="105" height="90" as="geometry" />
        </mxCell>
        <mxCell id="h-HeieNbghXJK1KKG8Kg-23" value="" style="endArrow=none;html=1;rounded=0;strokeWidth=2;" edge="1" parent="1">
          <mxGeometry width="50" height="50" relative="1" as="geometry">
            <mxPoint x="415" y="360" as="sourcePoint" />
            <mxPoint x="450" y="360" as="targetPoint" />
          </mxGeometry>
        </mxCell>
        <mxCell id="h-HeieNbghXJK1KKG8Kg-25" value="" style="endArrow=none;html=1;rounded=0;strokeWidth=2;" edge="1" parent="1">
          <mxGeometry width="50" height="50" relative="1" as="geometry">
            <mxPoint x="450" y="390" as="sourcePoint" />
            <mxPoint x="450" y="330" as="targetPoint" />
          </mxGeometry>
        </mxCell>
        <mxCell id="h-HeieNbghXJK1KKG8Kg-33" value="" style="endArrow=classic;html=1;rounded=0;strokeWidth=2;" edge="1" parent="1">
          <mxGeometry width="50" height="50" relative="1" as="geometry">
            <mxPoint x="450" y="390" as="sourcePoint" />
            <mxPoint x="520" y="390" as="targetPoint" />
          </mxGeometry>
        </mxCell>
        <mxCell id="h-HeieNbghXJK1KKG8Kg-34" value="" style="endArrow=classic;html=1;rounded=0;strokeWidth=2;" edge="1" parent="1">
          <mxGeometry width="50" height="50" relative="1" as="geometry">
            <mxPoint x="690" y="329.5" as="sourcePoint" />
            <mxPoint x="760" y="329.5" as="targetPoint" />
          </mxGeometry>
        </mxCell>
        <mxCell id="h-HeieNbghXJK1KKG8Kg-35" value="" style="image;aspect=fixed;html=1;points=[];align=center;fontSize=12;image=img/lib/azure2/analytics/Azure_Databricks.svg;" vertex="1" parent="1">
          <mxGeometry x="534.5899999999999" y="300" width="55.41" height="60" as="geometry" />
        </mxCell>
        <mxCell id="h-HeieNbghXJK1KKG8Kg-36" value="&lt;b&gt;Data Cleansing&lt;br&gt;and Validation&amp;nbsp;&lt;/b&gt;" style="text;html=1;align=center;verticalAlign=middle;resizable=0;points=[];autosize=1;strokeColor=none;fillColor=none;" vertex="1" parent="1">
          <mxGeometry x="580" y="310" width="110" height="40" as="geometry" />
        </mxCell>
        <mxCell id="h-HeieNbghXJK1KKG8Kg-38" value="" style="image;aspect=fixed;html=1;points=[];align=center;fontSize=12;image=img/lib/azure2/analytics/Azure_Databricks.svg;" vertex="1" parent="1">
          <mxGeometry x="769.9999999999999" y="300" width="55.41" height="60" as="geometry" />
        </mxCell>
        <mxCell id="h-HeieNbghXJK1KKG8Kg-39" value="&lt;b&gt;Business Logic&lt;br&gt;Implementation&lt;/b&gt;" style="text;html=1;align=center;verticalAlign=middle;resizable=0;points=[];autosize=1;strokeColor=none;fillColor=none;" vertex="1" parent="1">
          <mxGeometry x="820" y="310" width="110" height="40" as="geometry" />
        </mxCell>
        <mxCell id="h-HeieNbghXJK1KKG8Kg-40" value="" style="shape=image;html=1;verticalAlign=top;verticalLabelPosition=bottom;labelBackgroundColor=#ffffff;imageAspect=0;aspect=fixed;image=https://cdn1.iconfinder.com/data/icons/filled-line-christmas-icons/75/_snowflake-128.png" vertex="1" parent="1">
          <mxGeometry x="1000" y="310" width="80" height="80" as="geometry" />
        </mxCell>
        <mxCell id="h-HeieNbghXJK1KKG8Kg-41" value="&lt;b&gt;Snowflake&lt;/b&gt;" style="text;html=1;align=center;verticalAlign=middle;resizable=0;points=[];autosize=1;strokeColor=none;fillColor=none;" vertex="1" parent="1">
          <mxGeometry x="1000" y="390" width="80" height="30" as="geometry" />
        </mxCell>
        <mxCell id="h-HeieNbghXJK1KKG8Kg-44" value="&lt;b&gt;&lt;font style=&quot;font-size: 13px;&quot;&gt;Data Factory&lt;/font&gt;&lt;/b&gt;" style="text;html=1;align=center;verticalAlign=middle;resizable=0;points=[];autosize=1;strokeColor=none;fillColor=none;" vertex="1" parent="1">
          <mxGeometry x="534" y="168" width="100" height="30" as="geometry" />
        </mxCell>
        <mxCell id="h-HeieNbghXJK1KKG8Kg-47" value="" style="html=1;verticalLabelPosition=bottom;align=center;labelBackgroundColor=#ffffff;verticalAlign=top;strokeWidth=2;strokeColor=#0080F0;shadow=0;dashed=0;shape=mxgraph.ios7.icons.mail;" vertex="1" parent="1">
          <mxGeometry x="534.5899999999999" y="375.5" width="62.71" height="36.5" as="geometry" />
        </mxCell>
        <mxCell id="h-HeieNbghXJK1KKG8Kg-48" value="&lt;b&gt;Sends Notification&lt;/b&gt;" style="text;html=1;align=center;verticalAlign=middle;resizable=0;points=[];autosize=1;strokeColor=none;fillColor=none;" vertex="1" parent="1">
          <mxGeometry x="585" y="378.75" width="130" height="30" as="geometry" />
        </mxCell>
        <mxCell id="h-HeieNbghXJK1KKG8Kg-51" value="" style="image;sketch=0;aspect=fixed;html=1;points=[];align=center;fontSize=12;image=img/lib/mscae/Logic_Apps.svg;" vertex="1" parent="1">
          <mxGeometry x="537.29" y="511" width="50" height="39" as="geometry" />
        </mxCell>
        <mxCell id="h-HeieNbghXJK1KKG8Kg-54" value="" style="endArrow=classic;html=1;rounded=0;entryX=0.419;entryY=1.005;entryDx=0;entryDy=0;entryPerimeter=0;strokeWidth=2;" edge="1" parent="1" target="h-HeieNbghXJK1KKG8Kg-47">
          <mxGeometry width="50" height="50" relative="1" as="geometry">
            <mxPoint x="561" y="500" as="sourcePoint" />
            <mxPoint x="530" y="400" as="targetPoint" />
          </mxGeometry>
        </mxCell>
        <mxCell id="h-HeieNbghXJK1KKG8Kg-55" value="&lt;b&gt;Logic App Workflow&lt;/b&gt;" style="text;html=1;align=center;verticalAlign=middle;resizable=0;points=[];autosize=1;strokeColor=none;fillColor=none;" vertex="1" parent="1">
          <mxGeometry x="490" y="558" width="140" height="30" as="geometry" />
        </mxCell>
        <mxCell id="h-HeieNbghXJK1KKG8Kg-56" value="" style="verticalLabelPosition=bottom;sketch=0;html=1;fillColor=#282828;strokeColor=none;verticalAlign=top;pointerEvents=1;align=center;shape=mxgraph.cisco_safe.people_places_things_icons.icon1;" vertex="1" parent="1">
          <mxGeometry x="780" y="370" width="46.5" height="50" as="geometry" />
        </mxCell>
        <mxCell id="h-HeieNbghXJK1KKG8Kg-57" value="" style="endArrow=classic;html=1;rounded=0;strokeWidth=2;" edge="1" parent="1">
          <mxGeometry width="50" height="50" relative="1" as="geometry">
            <mxPoint x="710" y="394.82" as="sourcePoint" />
            <mxPoint x="770" y="394.41" as="targetPoint" />
          </mxGeometry>
        </mxCell>
        <mxCell id="h-HeieNbghXJK1KKG8Kg-58" value="&lt;b&gt;Project Team&lt;/b&gt;" style="text;html=1;align=center;verticalAlign=middle;resizable=0;points=[];autosize=1;strokeColor=none;fillColor=none;" vertex="1" parent="1">
          <mxGeometry x="825" y="378.75" width="100" height="30" as="geometry" />
        </mxCell>
        <mxCell id="h-HeieNbghXJK1KKG8Kg-59" value="Yes" style="text;html=1;align=center;verticalAlign=middle;resizable=0;points=[];autosize=1;strokeColor=none;fillColor=none;" vertex="1" parent="1">
          <mxGeometry x="460" y="300" width="40" height="30" as="geometry" />
        </mxCell>
        <mxCell id="h-HeieNbghXJK1KKG8Kg-60" value="No" style="text;html=1;align=center;verticalAlign=middle;resizable=0;points=[];autosize=1;strokeColor=none;fillColor=none;" vertex="1" parent="1">
          <mxGeometry x="460" y="390" width="40" height="30" as="geometry" />
        </mxCell>
        <mxCell id="h-HeieNbghXJK1KKG8Kg-61" value="&lt;b&gt;Python script gets&amp;nbsp;&lt;br&gt;the data from github&lt;br&gt;and sends it to blob&lt;br&gt;storage&lt;/b&gt;" style="shape=callout;whiteSpace=wrap;html=1;perimeter=calloutPerimeter;fillColor=#d5e8d4;strokeColor=#82b366;rotation=0;direction=north;position2=1;" vertex="1" parent="1">
          <mxGeometry x="-190" y="450" width="110" height="120" as="geometry" />
        </mxCell>
        <mxCell id="h-HeieNbghXJK1KKG8Kg-62" value="" style="rounded=1;whiteSpace=wrap;html=1;fillColor=#dae8fc;strokeColor=#6c8ebf;" vertex="1" parent="1">
          <mxGeometry x="-150" y="290" width="120" height="142" as="geometry" />
        </mxCell>
        <mxCell id="h-HeieNbghXJK1KKG8Kg-63" value="" style="shape=image;html=1;verticalAlign=top;verticalLabelPosition=bottom;labelBackgroundColor=#ffffff;imageAspect=0;aspect=fixed;image=https://cdn1.iconfinder.com/data/icons/DarkGlass_Reworked/128x128/mimetypes/source_py.png" vertex="1" parent="1">
          <mxGeometry x="-125" y="326" width="70" height="70" as="geometry" />
        </mxCell>
        <mxCell id="h-HeieNbghXJK1KKG8Kg-64" value="&lt;b&gt;Python Script&lt;/b&gt;" style="text;html=1;align=center;verticalAlign=middle;resizable=0;points=[];autosize=1;strokeColor=none;fillColor=none;" vertex="1" parent="1">
          <mxGeometry x="-140" y="396" width="100" height="30" as="geometry" />
        </mxCell>
        <mxCell id="h-HeieNbghXJK1KKG8Kg-65" value="" style="image;aspect=fixed;html=1;points=[];align=center;fontSize=12;image=img/lib/azure2/databases/Data_Factory.svg;" vertex="1" parent="1">
          <mxGeometry x="-115" y="140" width="50" height="50" as="geometry" />
        </mxCell>
        <mxCell id="h-HeieNbghXJK1KKG8Kg-66" value="&lt;b&gt;&lt;font style=&quot;font-size: 13px;&quot;&gt;Data Factory&lt;/font&gt;&lt;/b&gt;" style="text;html=1;align=center;verticalAlign=middle;resizable=0;points=[];autosize=1;strokeColor=none;fillColor=none;" vertex="1" parent="1">
          <mxGeometry x="-140" y="190" width="100" height="30" as="geometry" />
        </mxCell>
        <mxCell id="h-HeieNbghXJK1KKG8Kg-67" value="" style="endArrow=classic;html=1;rounded=0;strokeWidth=2;" edge="1" parent="1">
          <mxGeometry width="50" height="50" relative="1" as="geometry">
            <mxPoint x="-50" y="170" as="sourcePoint" />
            <mxPoint x="-50" y="270" as="targetPoint" />
            <Array as="points">
              <mxPoint y="170" />
            </Array>
          </mxGeometry>
        </mxCell>
        <mxCell id="h-HeieNbghXJK1KKG8Kg-68" value="" style="endArrow=classic;html=1;rounded=0;strokeWidth=2;" edge="1" parent="1">
          <mxGeometry width="50" height="50" relative="1" as="geometry">
            <mxPoint x="-130" y="170" as="sourcePoint" />
            <mxPoint x="-130" y="270" as="targetPoint" />
            <Array as="points">
              <mxPoint x="-170" y="170" />
            </Array>
          </mxGeometry>
        </mxCell>
        <mxCell id="h-HeieNbghXJK1KKG8Kg-69" value="&lt;b&gt;Pipeline runs everyday using schedule triggers&lt;/b&gt;" style="shape=callout;whiteSpace=wrap;html=1;perimeter=calloutPerimeter;fillColor=#d5e8d4;strokeColor=#82b366;" vertex="1" parent="1">
          <mxGeometry x="-90" y="60" width="120" height="80" as="geometry" />
        </mxCell>
        <mxCell id="h-HeieNbghXJK1KKG8Kg-70" value="&lt;b&gt;This pipeline checks if the data is present and based on that either process it or sends an email to team&lt;/b&gt;" style="shape=callout;whiteSpace=wrap;html=1;perimeter=calloutPerimeter;fillColor=#d5e8d4;strokeColor=#82b366;" vertex="1" parent="1">
          <mxGeometry x="618" y="20" width="162" height="100" as="geometry" />
        </mxCell>
        <mxCell id="h-HeieNbghXJK1KKG8Kg-71" value="&lt;b&gt;Logic app workflow creates a web step which can be called based on condition&lt;/b&gt;" style="shape=callout;whiteSpace=wrap;html=1;perimeter=calloutPerimeter;fillColor=#d5e8d4;strokeColor=#82b366;rotation=0;direction=north;position2=1;" vertex="1" parent="1">
          <mxGeometry x="410" y="500" width="110" height="120" as="geometry" />
        </mxCell>
        <mxCell id="h-HeieNbghXJK1KKG8Kg-73" value="&lt;b&gt;The snowflake will act as&amp;nbsp;&lt;br&gt;our data warehouse/ data mart&lt;/b&gt;" style="shape=callout;whiteSpace=wrap;html=1;perimeter=calloutPerimeter;fillColor=#d5e8d4;strokeColor=#82b366;" vertex="1" parent="1">
          <mxGeometry x="959" y="198" width="162" height="100" as="geometry" />
        </mxCell>
      </root>
    </mxGraphModel>
  </diagram>
</mxfile>
